<svg width="81" height="81" viewBox="0 0 81 81" fill="none" xmlns="http://www.w3.org/2000/svg">
<g filter="url(#filter0_d_917_5750)">
<path d="M43.1378 4.02387C60.7375 4.74422 73.3494 16.414 75.6295 31.6855C75.6295 31.9017 72.9931 30.8211 69.0742 32.55C70.4992 32.55 75.772 32.8381 75.772 33.0542C75.962 34.543 76.0332 36.0557 75.9857 37.5925C75.5582 55.6734 62.3763 69 43.1378 69C24.3981 69 12.285 55.9616 11.0737 38.5289C11.0737 38.3128 14.9214 37.4484 15.7052 37.2323C14.6364 37.3043 11.6437 37.0882 11.0024 36.4399C10.9312 30.1008 12.4275 24.1938 15.2777 19.1514C15.4202 18.8632 19.054 17.6386 20.4791 17.2784C16.8452 17.6386 16.0614 17.7106 16.2039 17.4945C21.6904 9.06637 31.096 3.59165 43.1378 4.02387Z" fill="url(#paint0_linear_917_5750)"/>
<path d="M43.1378 4.38384C60.4524 5.1042 72.7793 16.4858 74.7032 31.3252C72.9218 31.1811 70.7129 31.6133 67.8628 32.8379C70.0716 32.7659 72.2092 32.91 74.9169 33.1981C75.0119 34.2546 75.0356 35.3352 74.9881 36.4397C74.5606 53.6562 60.3099 66.4065 43.1378 66.4065C26.8207 66.4065 13.995 54.5927 12.2137 38.6008C14.2563 37.9765 16.2751 37.3521 18.2702 36.7278C16.8451 37.016 13.2113 36.8719 11.9999 36.2236C11.9999 36.1276 11.9999 36.0075 11.9999 35.8634C11.8574 29.8845 13.2112 24.1937 15.8476 19.3673C17.4864 18.7189 20.1941 17.7104 22.9017 16.774C20.9066 16.9901 18.8402 17.2062 16.9164 17.4943C22.1892 9.28227 31.3809 3.95163 43.1378 4.38384Z" fill="url(#paint1_radial_917_5750)"/>
<path style="mix-blend-mode:multiply" opacity="0.6" d="M13.924 23.4732C16.2754 23.041 18.6267 22.6088 20.8356 22.2486C33.5187 20.2316 47.342 17.0621 59.2413 16.0536C61.949 15.7654 64.9417 15.8375 68.0056 15.9815C68.5281 16.6058 69.0269 17.2542 69.5019 17.9265C68.5043 17.8785 67.5306 17.8785 66.5805 17.9265C53.7548 18.2867 44.7769 22.1046 32.8062 24.2656C28.1748 25.1301 24.5408 26.2826 20.1231 27.8674C17.3442 28.8759 14.779 29.7403 12.2852 30.3166C12.6177 27.9635 13.164 25.6823 13.924 23.4732Z" fill="url(#paint2_radial_917_5750)"/>
<path style="mix-blend-mode:multiply" opacity="0.6" d="M65.5829 27.939C68.2193 27.5068 71.1407 27.5788 74.0621 27.8669C74.3471 29.0195 74.5609 30.1721 74.7034 31.3246C72.9221 31.1806 70.7131 31.6128 67.863 32.8374C65.0841 32.9094 62.3052 33.4137 58.5288 34.4942C54.6811 35.6468 47.6982 38.0239 41.7129 40.7613C37.5802 42.7063 33.875 44.7232 32.0224 46.6682C31.5237 47.1004 31.1674 47.6047 30.8824 48.181C30.6686 48.6852 30.5261 49.2615 30.4548 49.8378C30.4548 50.4141 30.5261 51.0624 30.7398 51.6387C30.9536 52.215 31.3099 52.7192 31.7374 53.1514C33.4475 55.0243 38.4352 58.6261 42.2117 61.3635C44.4918 63.0203 46.4869 64.6051 48.4108 66.0458C46.7007 66.2859 44.9431 66.406 43.138 66.406C41.9979 66.406 40.8578 66.358 39.7178 66.2619C37.0101 64.2449 34.2313 62.372 31.3811 60.9313C28.4597 59.4906 25.3245 58.1939 22.2606 56.8253C21.1681 56.345 20.1943 55.8888 19.3393 55.4566C17.7717 53.5836 16.4179 51.4946 15.2778 49.2615C16.1329 48.253 17.7004 47.1725 19.9806 45.9479C24.1133 43.7868 29.1722 41.9139 31.5236 41.0494C41.3566 37.2316 56.1774 29.5958 65.5829 27.939Z" fill="url(#paint3_radial_917_5750)"/>
<g style="mix-blend-mode:multiply" opacity="0.3">
<path fill-rule="evenodd" clip-rule="evenodd" d="M74.9882 34.2784C64.7277 33.558 57.1036 35.3589 42.7816 41.9142C39.0052 43.643 35.9412 45.8761 34.3024 47.533C32.8773 48.9737 32.6635 50.9907 34.0174 52.5755C35.5849 54.1602 39.8602 57.618 43.3517 60.2113C46.1306 62.1562 48.2681 64.0291 50.3345 65.686C49.7169 65.83 49.0757 65.9501 48.4107 66.0461C46.4868 64.6054 44.4917 63.0206 42.2115 61.3638C38.4351 58.6265 33.4474 55.0247 31.7373 53.1517C31.3098 52.7195 30.9535 52.2153 30.7397 51.639C30.526 51.0627 30.4547 50.4144 30.4547 49.8381C30.5259 49.2618 30.6685 48.6855 30.8823 48.1813C31.1673 47.605 31.5235 47.1007 32.0223 46.6685C33.8749 44.7236 37.5801 42.7066 41.7128 40.7616C47.6981 38.0243 54.681 35.6471 58.5286 34.4945C65.2977 32.5496 68.8604 32.6216 74.917 33.1979C74.917 33.534 74.9407 33.8942 74.9882 34.2784ZM74.8458 38.7446C74.6557 38.7446 74.4895 38.7446 74.347 38.7446C66.7229 38.7446 59.3125 40.9057 52.6146 45.516C50.1208 47.2448 48.8381 48.8296 48.6244 50.3424C48.4106 51.8551 48.6957 53.3679 50.192 55.0247C52.6859 58.0502 55.251 60.7155 58.0299 62.9486C57.3174 63.3328 56.5573 63.6689 55.7497 63.9571C53.0421 61.724 50.4057 58.9146 47.8406 55.9611C46.0593 53.8001 45.1329 51.8551 45.418 49.8381C45.9167 46.2363 53.3984 42.3464 57.4598 40.7616C64.514 37.8802 69.7155 36.8717 74.9882 37.0158C74.9407 37.5921 74.8933 38.1683 74.8458 38.7446ZM62.3051 60.3553C60.6663 59.3468 59.3125 58.1942 58.3149 57.0417C56.8186 55.2408 56.0348 53.3678 56.391 51.8551C56.4385 51.615 56.4861 51.4229 56.5336 51.2788C57.2461 49.622 58.8849 47.8932 61.0225 46.3804C63.0176 44.9397 65.5828 43.643 68.0054 43.0668C70.0005 42.5625 72.0668 42.3464 74.2757 42.4184C74.1807 42.7066 74.1095 42.9947 74.062 43.2829C74.0145 43.2829 73.9669 43.2829 73.9194 43.2829C71.9243 43.1388 70.0005 43.2829 68.1479 43.7871C66.0103 44.4354 63.6589 45.9482 61.8063 47.3169C58.4574 49.9101 56.3911 52.3594 59.5262 56.3213C60.4525 57.4739 61.7351 58.6264 63.3027 59.6349C62.9702 59.8751 62.6376 60.1152 62.3051 60.3553ZM74.062 27.8672C71.1406 27.5791 68.2192 27.5071 65.5828 27.9393C56.1773 29.5961 41.3565 37.2319 31.5235 41.0498C29.1721 41.9142 24.1131 43.7871 19.9804 45.9482C17.7003 47.1728 16.1327 48.2533 15.2777 49.2618C14.8977 48.4935 14.5652 47.7251 14.2801 46.9567C18.8404 43.7871 26.7495 40.8337 30.241 39.465C34.5162 37.8082 38.7914 36.0793 43.0666 34.3504C49.907 31.6131 58.2437 27.6511 65.5115 26.9308C68.1479 26.7147 70.9268 26.7867 73.8482 27.0028C73.8957 27.2909 73.967 27.5791 74.062 27.8672ZM19.3391 55.4569C20.1942 55.8891 21.168 56.3453 22.2605 56.8256C25.3244 58.1943 28.4596 59.4909 31.381 60.9316C34.2312 62.3723 37.01 64.2452 39.7177 66.2622C37.8651 66.0701 36.0837 65.734 34.3736 65.2538C32.8061 64.3173 31.1673 63.4528 29.4572 62.6604C27.8184 61.796 26.1082 61.0036 24.3269 60.2833C22.4743 58.8906 20.8117 57.2818 19.3391 55.4569ZM72.4231 23.1129C69.0029 22.9688 65.4403 23.1849 61.7351 23.9053C54.5384 25.274 49.1232 27.7232 41.2853 30.5326C31.7373 33.9903 22.1181 37.3039 12.4276 40.1853C12.3326 39.6571 12.2613 39.1288 12.2138 38.6005C22.118 35.6471 31.8798 32.3334 41.5703 28.8037C49.8358 25.7782 55.6073 23.8332 61.5926 22.8968C64.8703 22.3205 68.2191 22.1764 72.0668 22.3205C72.1618 22.5606 72.2806 22.8247 72.4231 23.1129ZM12.285 30.3164C14.7789 29.7402 17.344 28.8757 20.1229 27.8672C24.5406 26.2825 28.1746 25.1299 32.8061 24.2655C44.7767 22.1044 53.7547 18.2865 66.5803 17.9263C67.5304 17.8783 68.5042 17.8783 69.5017 17.9263C69.7867 18.3105 70.048 18.6947 70.2855 19.0789C69.0504 19.0309 67.8391 19.0309 66.6516 19.0789C59.3125 19.295 52.3296 21.24 45.2755 23.1849C41.1428 24.3375 37.2239 25.418 33.0199 26.2104C28.4597 27.0028 24.8256 28.1554 20.4792 29.7402C17.4865 30.8207 14.7077 31.6131 12.0713 32.2614C12.1188 31.5891 12.19 30.9408 12.285 30.3164ZM14.8502 21.312C16.7028 20.9278 18.6504 20.5676 20.693 20.2315C33.3761 18.2145 47.1993 15.9814 59.1699 14.9008C61.6638 14.6847 64.229 14.6127 66.8654 14.6847C67.2454 15.1169 67.6254 15.5491 68.0054 15.9814C64.9415 15.8373 61.9488 15.7653 59.2412 16.0534C47.3418 17.0619 33.5186 20.2315 20.8354 22.2485C18.6266 22.6086 16.2752 23.0408 13.9239 23.4731C14.2089 22.7527 14.5177 22.0323 14.8502 21.312ZM18.0566 15.8373C21.4055 15.4051 24.6832 15.0449 27.8896 14.9008C31.951 14.7567 36.0125 14.4686 40.0739 13.9644C42.9241 13.6042 45.418 13.244 47.6269 12.8838C53.3984 12.0914 57.9586 11.4431 63.2314 11.3711C63.6114 11.6592 63.9677 11.9473 64.3002 12.2355C52.2583 12.3075 41.9265 16.1975 27.9608 16.4136C24.5406 16.4856 20.6217 16.9899 16.9165 17.4941C17.2965 16.9178 17.6766 16.3655 18.0566 15.8373ZM21.548 11.9474C29.8134 11.9474 36.9388 11.3711 45.3467 10.2185C49.907 9.57018 54.5385 8.99389 59.0987 8.70575C59.8112 9.08994 60.5 9.49815 61.1651 9.93036C55.9636 10.1465 50.6908 10.6507 45.4893 11.3711C36.3688 12.5957 28.8871 13.8923 19.7666 13.7482C20.3367 13.1239 20.9304 12.5236 21.548 11.9474ZM27.3196 7.84133C31.8798 7.62523 36.5113 7.12098 41.3565 6.40062C44.1117 5.96841 46.8668 5.58421 49.6219 5.24805C50.7145 5.44014 51.7596 5.70428 52.7571 6.04044C44.3492 6.90487 36.0125 8.48965 27.6045 9.21001C26.607 9.30606 25.6332 9.37808 24.6832 9.42611C25.4907 8.84982 26.3695 8.32157 27.3196 7.84133ZM72.2806 48.2533C71.9956 48.2533 71.7106 48.2533 71.4255 48.2533C69.1454 48.3254 67.0791 49.1898 65.7966 51.2788C65.4403 51.8551 65.084 52.5755 65.1553 53.2958C65.1553 53.8721 65.3691 54.5924 65.7966 54.9526C66.2716 55.3368 66.7704 55.649 67.2929 55.8891C67.0079 56.2253 66.6991 56.5374 66.3666 56.8256C66.034 56.6335 65.7015 56.3934 65.369 56.1052C65.0127 55.8171 64.7277 55.3848 64.514 54.9526C64.3715 54.4484 64.2289 53.9441 64.2289 53.4399C64.2289 52.9356 64.3002 52.4314 64.514 51.9272C64.6565 51.4229 64.8703 50.9907 65.084 50.5585C65.3691 50.1263 65.6778 49.718 66.0103 49.3339C66.3903 48.9497 66.7941 48.5895 67.2216 48.2533C67.6017 47.9652 68.0291 47.7011 68.5042 47.4609C68.9317 47.2208 69.4067 47.0527 69.9292 46.9567C70.6893 46.8126 71.4494 46.7165 72.2094 46.6685C72.4469 46.6685 72.7082 46.6685 72.9932 46.6685C72.7557 47.1968 72.5182 47.7251 72.2806 48.2533Z" fill="#B7805C"/>
</g>
<g style="mix-blend-mode:screen" opacity="0.5">
<path d="M56.0347 29.1641C51.5457 30.7488 47.0568 32.6938 43.0666 34.3506C38.7913 36.0795 34.5161 37.8084 30.2409 39.4652C29.5284 39.7533 28.6733 40.0415 27.6758 40.4737C34.3024 37.4482 41.1427 34.6388 47.8405 31.7573C51.4032 30.1726 53.1845 29.6683 56.0347 29.1641Z" fill="#CA9E67"/>
</g>
<g style="mix-blend-mode:screen" opacity="0.5">
<path d="M32.0224 46.6691C31.5236 47.1013 31.1673 47.6056 30.8823 48.1818C30.8823 48.1818 30.8823 48.2058 30.8823 48.2539C31.5236 46.1648 33.4474 44.58 36.4401 42.8512C39.3615 41.1944 42.4254 39.8257 45.4893 38.457C51.9022 35.7917 56.3199 34.4951 62.3052 33.5586C61.0939 33.7747 59.8825 34.1349 58.5287 34.4951C54.681 35.6476 47.6982 38.0248 41.7128 40.7622C37.5801 42.7071 33.875 44.7241 32.0224 46.6691Z" fill="#CA9E67"/>
</g>
<g style="mix-blend-mode:screen" opacity="0.5">
<path d="M41.7126 22.0336C43.3514 21.6735 44.919 21.0251 46.4866 20.5929C51.8306 19.0802 54.7521 18.72 59.3835 18.5039C50.1206 19.7285 42.4251 22.5379 32.8059 24.2668C30.5258 24.699 28.4594 25.2032 26.3931 25.7795C29.3145 24.699 31.3808 24.0507 34.9435 23.3303C37.1524 22.8261 39.4325 22.6099 41.7126 22.0336Z" fill="#CA9E67"/>
</g>
<g style="mix-blend-mode:screen" opacity="0.7">
<path d="M43.5652 63.1657C32.5209 62.8776 25.1106 57.9071 20.6216 49.623C25.3243 57.2588 33.8747 62.3013 43.5652 62.3013C53.1132 62.3013 61.3787 57.3309 66.1527 49.7671C61.1649 58.4834 53.1845 63.3818 43.5652 63.1657Z" fill="#CA9E67"/>
</g>
<g style="mix-blend-mode:screen" opacity="0.7">
<path d="M29.3147 16.4133C30.0747 15.7889 30.8823 15.2127 31.7373 14.6844C33.2099 13.82 34.7774 13.1236 36.44 12.5954C37.3901 12.3072 38.3401 12.0671 39.2902 11.875C38.6726 12.0191 38.0314 12.2112 37.3664 12.4513C35.6563 13.0276 33.9462 13.82 32.3786 14.6844C31.4523 15.1887 30.5973 15.7649 29.8847 16.3412C29.2672 16.8695 28.7446 17.4217 28.3171 17.998C27.8183 18.6464 28.2459 18.7184 29.2434 18.8625C28.1984 19.0065 27.1533 19.1746 26.1082 19.3667C27.1058 18.2622 28.1746 17.2777 29.3147 16.4133ZM21.9756 25.922C22.5931 24.4332 23.3769 23.0165 24.3269 21.6719C24.8019 21.5758 25.3007 21.5038 25.8232 21.4558C24.2556 22.032 23.8281 22.6804 22.6168 24.7694C22.3793 25.1536 22.1656 25.5378 21.9756 25.922Z" fill="#CA9E67"/>
</g>
<path opacity="0.7" fill-rule="evenodd" clip-rule="evenodd" d="M67.8627 32.8382C68.6702 32.7902 69.5015 32.7902 70.3565 32.8382C70.404 33.7026 70.4279 34.5671 70.4279 35.4315C70.0716 50.3429 58.3147 62.3008 43.4939 62.3008C29.2432 62.3008 17.5576 51.3514 16.6313 37.2324C17.2014 37.0883 17.7476 36.9202 18.2701 36.7281C17.8426 36.8002 17.2726 36.8722 16.6313 36.8722C16.6313 36.392 16.6313 35.9117 16.6313 35.4315C16.6313 20.3761 28.6732 7.69779 43.4939 8.20204C57.1747 8.70629 68.789 18.6472 70.2141 31.9738C69.5015 32.2139 68.7177 32.5021 67.8627 32.8382ZM43.4939 59.1312C57.1034 58.9151 66.9364 48.542 66.9364 35.4315C66.9364 22.321 56.4621 11.4436 43.4939 11.4436C30.5258 11.4436 20.0515 22.321 20.0515 35.4315C20.0515 48.542 29.8845 59.3474 43.4939 59.1312Z" fill="#F8BB42"/>
<g style="mix-blend-mode:multiply" opacity="0.5">
<path d="M16.6313 35.4315C16.6313 20.3761 28.6732 7.69779 43.4939 8.20204C57.1746 8.70629 68.789 18.6472 70.2141 31.9738C70.1666 31.9738 70.1191 31.9978 70.0716 32.0458C67.934 19.4396 56.6759 10.147 43.4939 9.71477C28.8869 9.21052 16.9876 21.4566 16.6313 36.1519C16.6313 35.9117 16.6313 35.6716 16.6313 35.4315Z" fill="#683C11"/>
</g>
<g style="mix-blend-mode:multiply" opacity="0.5">
<path d="M66.9362 36.8727C66.9362 49.9832 57.1032 60.3563 43.4937 60.5724C29.8843 60.8606 20.0513 49.9832 20.0513 36.8727C20.0513 36.6326 20.0513 36.3925 20.0513 36.1523C20.4075 48.9027 30.1693 59.3478 43.4937 59.1317C56.8182 58.9156 66.5799 48.9027 66.9362 36.1523C66.9362 36.3925 66.9362 36.6326 66.9362 36.8727Z" fill="#683C11"/>
</g>
<g opacity="0.6">
<path d="M66.9362 35.4312C66.9362 48.5417 57.1032 58.9149 43.4937 59.131C29.8843 59.3471 20.0513 48.5417 20.0513 35.4312C20.0513 22.3207 30.5256 11.4434 43.4937 11.4434C56.4619 11.4434 66.9362 22.3207 66.9362 35.4312Z" fill="url(#paint4_linear_917_5750)" style="mix-blend-mode:screen"/>
</g>
</g>
<defs>
<filter id="filter0_d_917_5750" x="0" y="0" width="81" height="81" filterUnits="userSpaceOnUse" color-interpolation-filters="sRGB">
<feFlood flood-opacity="0" result="BackgroundImageFix"/>
<feColorMatrix in="SourceAlpha" type="matrix" values="0 0 0 0 0 0 0 0 0 0 0 0 0 0 0 0 0 0 127 0" result="hardAlpha"/>
<feOffset dx="-3" dy="4"/>
<feGaussianBlur stdDeviation="4"/>
<feComposite in2="hardAlpha" operator="out"/>
<feColorMatrix type="matrix" values="0 0 0 0 0 0 0 0 0 0 0 0 0 0 0 0 0 0 0.36 0"/>
<feBlend mode="normal" in2="BackgroundImageFix" result="effect1_dropShadow_917_5750"/>
<feBlend mode="normal" in="SourceGraphic" in2="effect1_dropShadow_917_5750" result="shape"/>
</filter>
<linearGradient id="paint0_linear_917_5750" x1="5.30214" y1="69" x2="5.30214" y2="4.45608" gradientUnits="userSpaceOnUse">
<stop stop-color="#692705"/>
<stop offset="1" stop-color="#823B00"/>
</linearGradient>
<radialGradient id="paint1_radial_917_5750" cx="0" cy="0" r="1" gradientUnits="userSpaceOnUse" gradientTransform="translate(24.6831 8.12969) scale(66.7646 67.4974)">
<stop stop-color="#F59547"/>
<stop offset="1" stop-color="#A14C1F"/>
</radialGradient>
<radialGradient id="paint2_radial_917_5750" cx="0" cy="0" r="1" gradientUnits="userSpaceOnUse" gradientTransform="translate(28.531 32.9099) scale(68.2611 69.0101)">
<stop stop-color="#CFA04D"/>
<stop offset="1" stop-color="white"/>
</radialGradient>
<radialGradient id="paint3_radial_917_5750" cx="0" cy="0" r="1" gradientUnits="userSpaceOnUse" gradientTransform="translate(39.2191 68.0628) scale(84.0794 85.0021)">
<stop stop-color="#CFA04D"/>
<stop offset="1" stop-color="white"/>
</radialGradient>
<linearGradient id="paint4_linear_917_5750" x1="14.351" y1="58.9149" x2="14.351" y2="11.4434" gradientUnits="userSpaceOnUse">
<stop stop-color="#CF8C08"/>
<stop offset="0.25"/>
<stop offset="0.75"/>
<stop offset="1" stop-color="#CF8C08"/>
</linearGradient>
</defs>
</svg>
