<svg width="1192" height="136" viewBox="0 0 1192 136" fill="none" xmlns="http://www.w3.org/2000/svg">
<path d="M1117.33 233.725C1100.88 233.725 1080.74 232.079 1056.91 228.788V196.868C1086.22 201.475 1106.58 203.779 1117.97 203.779C1127.67 203.779 1134.84 202.792 1139.48 200.817C1144.12 198.843 1146.44 195.223 1146.44 189.958V180.085C1146.44 174.601 1144.96 170.762 1142.01 168.568C1139.06 166.154 1133.26 164.948 1124.61 164.948H1104.68C1088.44 164.948 1075.89 161.657 1067.03 155.076C1058.17 148.275 1053.74 138.402 1053.74 125.459V106.043C1053.74 92.2222 1060.07 82.4596 1072.73 76.7556C1085.38 70.8323 1104.47 67.8706 1129.99 67.8706C1140.11 67.8706 1158.25 68.8578 1184.41 70.8323V101.436C1151.5 98.8037 1132.94 97.4874 1128.72 97.4874C1116.28 97.4874 1108.16 98.3649 1104.36 100.12C1100.99 102.094 1099.3 105.714 1099.3 110.979V119.535C1099.3 122.387 1100.67 124.91 1103.41 127.104C1106.16 129.079 1110.16 130.066 1115.44 130.066H1135.68C1173.23 130.066 1192 142.79 1192 168.239V188.312C1192 195.991 1190.63 202.682 1187.89 208.386C1185.14 214.09 1181.56 218.587 1177.13 221.878C1172.91 224.949 1167.43 227.363 1160.68 229.118C1154.14 230.873 1147.29 232.079 1140.11 232.737C1133.58 233.396 1125.98 233.725 1117.33 233.725Z" fill="url(#paint0_linear_113_112)"/>
<path d="M871.891 71.1614H917.449V90.5768C921.034 75.4393 937.38 67.8706 966.487 67.8706C986.102 67.8706 999.812 71.6001 1007.62 79.0592C1015.63 86.2988 1019.64 97.8165 1019.64 113.612V230.434H973.447V119.865C973.447 113.722 972.815 109.115 971.549 106.043C970.494 102.972 968.174 100.778 964.589 99.4618C961.214 98.1455 955.941 97.4874 948.77 97.4874C939.701 97.4874 933.057 98.1455 928.838 99.4618C924.62 100.559 921.773 102.643 920.296 105.714C918.82 108.786 918.081 113.502 918.081 119.865V230.434H871.891V71.1614Z" fill="url(#paint1_linear_113_112)"/>
<path d="M771.923 233.725C717.718 233.725 690.615 216.503 690.615 182.06V124.801C690.615 104.837 696.732 90.3574 708.965 81.3627C721.409 72.368 740.497 67.8706 766.228 67.8706C790.484 67.8706 808.201 72.2583 819.379 81.0336C830.768 89.5896 836.463 104.179 836.463 124.801V163.632H737.122V178.111C737.122 187.325 740.286 193.906 746.613 197.855C752.941 201.804 764.33 203.779 780.782 203.779C795.967 203.779 813.052 201.475 832.034 196.868V227.472C813.263 231.64 793.226 233.725 771.923 233.725ZM792.487 136.318V113.283C792.487 108.018 790.378 104.069 786.16 101.436C782.153 98.8037 775.298 97.4874 765.596 97.4874C754.417 97.4874 746.93 98.8037 743.133 101.436C739.126 104.288 737.122 108.237 737.122 113.283V136.318H792.487Z" fill="url(#paint2_linear_113_112)"/>
<path d="M579.323 233.643C559.919 233.643 544.522 231.559 533.132 227.391C521.953 223.223 513.938 216.86 509.087 208.305C504.236 199.529 501.811 188.012 501.811 173.752V-0.000244141H548.002V86.8757C550.744 79.636 555.806 74.6999 563.188 72.0673C570.57 69.2153 582.065 67.7893 597.673 67.7893C610.961 67.7893 621.612 68.8862 629.627 71.0801C637.853 73.2739 644.075 76.784 648.293 81.6105C652.301 86.4369 655.043 91.8118 656.519 97.7352C657.996 103.439 658.734 111.337 658.734 121.429V173.752C658.734 195.251 652.512 210.608 640.068 219.822C627.623 229.036 607.375 233.643 579.323 233.643ZM579.956 203.697C589.025 203.697 595.88 203.039 600.52 201.723C605.161 200.407 608.324 198.103 610.012 194.812C611.699 191.522 612.543 186.586 612.543 180.004V121.1C612.543 113.86 611.804 108.704 610.328 105.633C608.852 102.342 605.899 100.148 601.47 99.0515C597.04 97.9546 589.764 97.4061 579.639 97.4061C570.992 97.4061 564.348 98.1739 559.708 99.7096C555.278 101.245 552.22 103.659 550.533 106.949C548.845 110.24 548.002 114.957 548.002 121.1V180.004C548.002 186.586 548.74 191.522 550.216 194.812C551.904 198.103 554.962 200.407 559.391 201.723C564.031 203.039 570.886 203.697 579.956 203.697Z" fill="url(#paint3_linear_113_112)"/>
<path d="M388.549 233.725C379.057 233.725 371.253 233.396 365.137 232.737C359.02 232.079 352.482 230.763 345.521 228.788C337.928 226.595 331.812 223.523 327.171 219.574C322.531 215.406 318.629 209.592 315.465 202.133C312.302 194.894 310.72 186.118 310.72 175.807V128.75C310.72 118.219 312.302 109.005 315.465 101.107C318.629 93.2094 322.742 87.0667 327.804 82.679C332.233 78.9495 338.034 75.8781 345.205 73.4649C352.587 70.8323 359.758 69.1869 366.719 68.5288C374.733 68.09 382.01 67.8706 388.549 67.8706C398.251 67.8706 405.949 68.1997 411.644 68.8578C417.55 69.2966 423.983 70.6129 430.943 72.8067C438.536 75.2199 444.653 78.5107 449.293 82.679C454.144 86.8473 458.257 92.7706 461.632 100.449C464.796 108.347 466.378 117.78 466.378 128.75V175.807C466.378 185.68 464.796 194.345 461.632 201.804C458.679 209.263 454.777 215.077 449.926 219.245C445.707 222.975 439.907 226.046 432.525 228.459C425.354 230.653 418.288 232.079 411.328 232.737C405 233.396 397.407 233.725 388.549 233.725ZM388.549 203.779C397.196 203.779 403.735 203.121 408.164 201.804C412.593 200.269 415.652 197.965 417.339 194.894C419.237 191.822 420.186 187.325 420.186 181.402V121.181C420.186 112.405 417.972 106.263 413.542 102.753C409.113 99.2425 400.782 97.4874 388.549 97.4874C376.315 97.4874 367.984 99.2425 363.555 102.753C359.126 106.263 356.911 112.405 356.911 121.181V181.402C356.911 187.325 357.755 191.822 359.442 194.894C361.34 197.965 364.504 200.269 368.933 201.804C373.362 203.121 379.901 203.779 388.549 203.779Z" fill="url(#paint4_linear_113_112)"/>
<path d="M226.962 -0.000244141H273.153V230.352H226.962V-0.000244141Z" fill="url(#paint5_linear_113_112)"/>
<path d="M102.19 233.563C90.3782 233.563 79.9378 233.015 70.8683 231.918C61.7989 230.821 52.8349 228.956 43.9763 226.324C34.485 223.691 26.6811 220.181 20.5645 215.793C14.4479 211.186 9.49129 205.263 5.69478 198.023C1.89826 190.345 0 181.57 0 171.697V82.847C0 72.0972 2.10917 62.4443 6.32753 53.8884C10.5459 45.113 16.2407 38.2024 23.4119 33.1566C30.1612 28.5496 38.1761 24.6007 47.4565 21.3099C56.9478 18.0192 66.2281 15.8253 75.2976 14.7284C82.8906 13.8509 92.0656 13.4121 102.822 13.4121C131.929 13.4121 159.77 15.7156 186.346 20.3227V59.1535C161.879 53.0108 134.038 49.9394 102.822 49.9394C67.1773 49.9394 49.3547 60.6892 49.3547 82.1888V168.077C49.3547 178.608 54.1004 186.067 63.5917 190.455C73.2939 194.842 87.8472 197.036 107.252 197.036C117.587 197.036 128.66 195.391 140.471 192.1V142.41H106.935V108.844H187.611V219.742C177.065 223.691 163.567 226.982 147.115 229.614C130.874 232.247 115.899 233.563 102.19 233.563Z" fill="url(#paint6_linear_113_112)"/>
<defs>
<linearGradient id="paint0_linear_113_112" x1="1055.54" y1="114.705" x2="1192.25" y2="115.671" gradientUnits="userSpaceOnUse">
<stop stop-color="white"/>
<stop offset="1" stop-color="#999999"/>
</linearGradient>
<linearGradient id="paint1_linear_113_112" x1="873.812" y1="113.776" x2="1019.9" y2="114.901" gradientUnits="userSpaceOnUse">
<stop stop-color="white"/>
<stop offset="1" stop-color="#999999"/>
</linearGradient>
<linearGradient id="paint2_linear_113_112" x1="692.512" y1="114.705" x2="836.724" y2="115.78" gradientUnits="userSpaceOnUse">
<stop stop-color="white"/>
<stop offset="1" stop-color="#999999"/>
</linearGradient>
<linearGradient id="paint3_linear_113_112" x1="503.851" y1="65.9769" x2="659.018" y2="66.8603" gradientUnits="userSpaceOnUse">
<stop stop-color="white"/>
<stop offset="1" stop-color="#999999"/>
</linearGradient>
<linearGradient id="paint4_linear_113_112" x1="312.744" y1="114.705" x2="466.655" y2="115.93" gradientUnits="userSpaceOnUse">
<stop stop-color="white"/>
<stop offset="1" stop-color="#999999"/>
</linearGradient>
<linearGradient id="paint5_linear_113_112" x1="227.563" y1="65.0476" x2="273.238" y2="65.1252" gradientUnits="userSpaceOnUse">
<stop stop-color="white"/>
<stop offset="1" stop-color="#999999"/>
</linearGradient>
<linearGradient id="paint6_linear_113_112" x1="2.43958" y1="75.5792" x2="187.948" y2="76.9193" gradientUnits="userSpaceOnUse">
<stop stop-color="white"/>
<stop offset="1" stop-color="#999999"/>
</linearGradient>
</defs>
</svg>
