<svg width="77" height="77" viewBox="0 0 77 77" fill="none" xmlns="http://www.w3.org/2000/svg">
<g filter="url(#filter0_d_917_5749)">
<path d="M40.1378 4.02387C57.7375 4.74422 70.3494 16.414 72.6295 31.6855C72.6295 31.9017 69.9931 30.8211 66.0742 32.55C67.4992 32.55 72.772 32.8381 72.772 33.0542C72.962 34.543 73.0332 36.0557 72.9857 37.5925C72.5582 55.6734 59.3763 69 40.1378 69C21.3981 69 9.28498 55.9616 8.07367 38.5289C8.07367 38.3128 11.9214 37.4484 12.7052 37.2323C11.6364 37.3043 8.64371 37.0882 8.00243 36.4399C7.93118 30.1008 9.42751 24.1938 12.2777 19.1514C12.4202 18.8632 16.054 17.6386 17.4791 17.2784C13.8452 17.6386 13.0614 17.7106 13.2039 17.4945C18.6904 9.06637 28.096 3.59165 40.1378 4.02387Z" fill="url(#paint0_linear_917_5749)"/>
<path d="M40.1378 4.38384C57.4524 5.1042 69.7793 16.4858 71.7032 31.3252C69.9218 31.1811 67.7129 31.6133 64.8628 32.8379C67.0716 32.7659 69.2092 32.91 71.9169 33.1981C72.0119 34.2546 72.0356 35.3352 71.9881 36.4397C71.5606 53.6562 57.3099 66.4065 40.1378 66.4065C23.8207 66.4065 10.995 54.5927 9.21366 38.6008C11.2563 37.9765 13.2751 37.3521 15.2702 36.7278C13.8451 37.016 10.2113 36.8719 8.99995 36.2236C8.99995 36.1276 8.99995 36.0075 8.99995 35.8634C8.85744 29.8845 10.2112 24.1937 12.8476 19.3673C14.4864 18.7189 17.1941 17.7104 19.9017 16.774C17.9066 16.9901 15.8402 17.2062 13.9164 17.4943C19.1892 9.28227 28.3809 3.95163 40.1378 4.38384Z" fill="url(#paint1_radial_917_5749)"/>
<path style="mix-blend-mode:multiply" opacity="0.6" d="M10.924 23.4732C13.2754 23.041 15.6267 22.6088 17.8356 22.2486C30.5187 20.2316 44.342 17.0621 56.2413 16.0536C58.949 15.7654 61.9417 15.8375 65.0056 15.9815C65.5281 16.6058 66.0269 17.2542 66.5019 17.9265C65.5043 17.8785 64.5306 17.8785 63.5805 17.9265C50.7548 18.2867 41.7769 22.1046 29.8062 24.2656C25.1748 25.1301 21.5408 26.2826 17.1231 27.8674C14.3442 28.8759 11.779 29.7403 9.28516 30.3166C9.61767 27.9635 10.164 25.6823 10.924 23.4732Z" fill="url(#paint2_radial_917_5749)"/>
<path style="mix-blend-mode:multiply" opacity="0.6" d="M62.5829 27.939C65.2193 27.5068 68.1407 27.5788 71.0621 27.8669C71.3471 29.0195 71.5609 30.1721 71.7034 31.3246C69.9221 31.1806 67.7131 31.6128 64.863 32.8374C62.0841 32.9094 59.3052 33.4137 55.5288 34.4942C51.6811 35.6468 44.6982 38.0239 38.7129 40.7613C34.5802 42.7063 30.875 44.7232 29.0224 46.6682C28.5237 47.1004 28.1674 47.6047 27.8824 48.181C27.6686 48.6852 27.5261 49.2615 27.4548 49.8378C27.4548 50.4141 27.5261 51.0624 27.7398 51.6387C27.9536 52.215 28.3099 52.7192 28.7374 53.1514C30.4475 55.0243 35.4352 58.6261 39.2117 61.3635C41.4918 63.0203 43.4869 64.6051 45.4108 66.0458C43.7007 66.2859 41.9431 66.406 40.138 66.406C38.9979 66.406 37.8578 66.358 36.7178 66.2619C34.0101 64.2449 31.2313 62.372 28.3811 60.9313C25.4597 59.4906 22.3245 58.1939 19.2606 56.8253C18.1681 56.345 17.1943 55.8888 16.3393 55.4566C14.7717 53.5836 13.4179 51.4946 12.2778 49.2615C13.1329 48.253 14.7004 47.1725 16.9806 45.9479C21.1133 43.7868 26.1722 41.9139 28.5236 41.0494C38.3566 37.2316 53.1774 29.5958 62.5829 27.939Z" fill="url(#paint3_radial_917_5749)"/>
<g style="mix-blend-mode:multiply" opacity="0.5">
<path fill-rule="evenodd" clip-rule="evenodd" d="M71.9882 34.2784C61.7277 33.558 54.1036 35.3589 39.7816 41.9142C36.0052 43.643 32.9412 45.8761 31.3024 47.533C29.8773 48.9737 29.6635 50.9907 31.0174 52.5755C32.5849 54.1602 36.8602 57.618 40.3517 60.2113C43.1306 62.1562 45.2681 64.0291 47.3345 65.686C46.7169 65.83 46.0757 65.9501 45.4107 66.0461C43.4868 64.6054 41.4917 63.0206 39.2115 61.3638C35.4351 58.6265 30.4474 55.0247 28.7373 53.1517C28.3098 52.7195 27.9535 52.2153 27.7397 51.639C27.526 51.0627 27.4547 50.4144 27.4547 49.8381C27.5259 49.2618 27.6685 48.6855 27.8823 48.1813C28.1673 47.605 28.5235 47.1007 29.0223 46.6685C30.8749 44.7236 34.5801 42.7066 38.7128 40.7616C44.6981 38.0243 51.681 35.6471 55.5286 34.4945C62.2977 32.5496 65.8604 32.6216 71.917 33.1979C71.917 33.534 71.9407 33.8942 71.9882 34.2784ZM71.8458 38.7446C71.6557 38.7446 71.4895 38.7446 71.347 38.7446C63.7229 38.7446 56.3125 40.9057 49.6146 45.516C47.1208 47.2448 45.8381 48.8296 45.6244 50.3424C45.4106 51.8551 45.6957 53.3679 47.192 55.0247C49.6859 58.0502 52.251 60.7155 55.0299 62.9486C54.3174 63.3328 53.5573 63.6689 52.7497 63.9571C50.0421 61.724 47.4057 58.9146 44.8406 55.9611C43.0593 53.8001 42.1329 51.8551 42.418 49.8381C42.9167 46.2363 50.3984 42.3464 54.4598 40.7616C61.514 37.8802 66.7155 36.8717 71.9882 37.0158C71.9407 37.5921 71.8933 38.1683 71.8458 38.7446ZM59.3051 60.3553C57.6663 59.3468 56.3125 58.1942 55.3149 57.0417C53.8186 55.2408 53.0348 53.3678 53.391 51.8551C53.4385 51.615 53.4861 51.4229 53.5336 51.2788C54.2461 49.622 55.8849 47.8932 58.0225 46.3804C60.0176 44.9397 62.5828 43.643 65.0054 43.0668C67.0005 42.5625 69.0668 42.3464 71.2757 42.4184C71.1807 42.7066 71.1095 42.9947 71.062 43.2829C71.0145 43.2829 70.9669 43.2829 70.9194 43.2829C68.9243 43.1388 67.0005 43.2829 65.1479 43.7871C63.0103 44.4354 60.6589 45.9482 58.8063 47.3169C55.4574 49.9101 53.3911 52.3594 56.5262 56.3213C57.4525 57.4739 58.7351 58.6264 60.3027 59.6349C59.9702 59.8751 59.6376 60.1152 59.3051 60.3553ZM71.062 27.8672C68.1406 27.5791 65.2192 27.5071 62.5828 27.9393C53.1773 29.5961 38.3565 37.2319 28.5235 41.0498C26.1721 41.9142 21.1131 43.7871 16.9804 45.9482C14.7003 47.1728 13.1327 48.2533 12.2777 49.2618C11.8977 48.4935 11.5652 47.7251 11.2801 46.9567C15.8404 43.7871 23.7495 40.8337 27.241 39.465C31.5162 37.8082 35.7914 36.0793 40.0666 34.3504C46.907 31.6131 55.2437 27.6511 62.5115 26.9308C65.1479 26.7147 67.9268 26.7867 70.8482 27.0028C70.8957 27.2909 70.967 27.5791 71.062 27.8672ZM16.3391 55.4569C17.1942 55.8891 18.168 56.3453 19.2605 56.8256C22.3244 58.1943 25.4596 59.4909 28.381 60.9316C31.2312 62.3723 34.01 64.2452 36.7177 66.2622C34.8651 66.0701 33.0837 65.734 31.3736 65.2538C29.8061 64.3173 28.1673 63.4528 26.4572 62.6604C24.8184 61.796 23.1082 61.0036 21.3269 60.2833C19.4743 58.8906 17.8117 57.2818 16.3391 55.4569ZM69.4231 23.1129C66.0029 22.9688 62.4403 23.1849 58.7351 23.9053C51.5384 25.274 46.1232 27.7232 38.2853 30.5326C28.7373 33.9903 19.1181 37.3039 9.42756 40.1853C9.33255 39.6571 9.26126 39.1288 9.21376 38.6005C19.118 35.6471 28.8798 32.3334 38.5703 28.8037C46.8358 25.7782 52.6073 23.8332 58.5926 22.8968C61.8703 22.3205 65.2191 22.1764 69.0668 22.3205C69.1618 22.5606 69.2806 22.8247 69.4231 23.1129ZM9.285 30.3164C11.7789 29.7402 14.344 28.8757 17.1229 27.8672C21.5406 26.2825 25.1746 25.1299 29.8061 24.2655C41.7767 22.1044 50.7547 18.2865 63.5803 17.9263C64.5304 17.8783 65.5042 17.8783 66.5017 17.9263C66.7867 18.3105 67.048 18.6947 67.2855 19.0789C66.0504 19.0309 64.8391 19.0309 63.6516 19.0789C56.3125 19.295 49.3296 21.24 42.2755 23.1849C38.1428 24.3375 34.2239 25.418 30.0199 26.2104C25.4597 27.0028 21.8256 28.1554 17.4792 29.7402C14.4865 30.8207 11.7077 31.6131 9.07129 32.2614C9.11879 31.5891 9.18999 30.9408 9.285 30.3164ZM11.8502 21.312C13.7028 20.9278 15.6504 20.5676 17.693 20.2315C30.3761 18.2145 44.1993 15.9814 56.1699 14.9008C58.6638 14.6847 61.229 14.6127 63.8654 14.6847C64.2454 15.1169 64.6254 15.5491 65.0054 15.9814C61.9415 15.8373 58.9488 15.7653 56.2412 16.0534C44.3418 17.0619 30.5186 20.2315 17.8354 22.2485C15.6266 22.6086 13.2752 23.0408 10.9239 23.4731C11.2089 22.7527 11.5177 22.0323 11.8502 21.312ZM15.0566 15.8373C18.4055 15.4051 21.6832 15.0449 24.8896 14.9008C28.951 14.7567 33.0125 14.4686 37.0739 13.9644C39.9241 13.6042 42.418 13.244 44.6269 12.8838C50.3984 12.0914 54.9586 11.4431 60.2314 11.3711C60.6114 11.6592 60.9677 11.9473 61.3002 12.2355C49.2583 12.3075 38.9265 16.1975 24.9608 16.4136C21.5406 16.4856 17.6217 16.9899 13.9165 17.4941C14.2965 16.9178 14.6766 16.3655 15.0566 15.8373ZM18.548 11.9474C26.8134 11.9474 33.9388 11.3711 42.3467 10.2185C46.907 9.57018 51.5385 8.99389 56.0987 8.70575C56.8112 9.08994 57.5 9.49815 58.1651 9.93036C52.9636 10.1465 47.6908 10.6507 42.4893 11.3711C33.3688 12.5957 25.8871 13.8923 16.7666 13.7482C17.3367 13.1239 17.9304 12.5236 18.548 11.9474ZM24.3196 7.84133C28.8798 7.62523 33.5113 7.12098 38.3565 6.40062C41.1117 5.96841 43.8668 5.58421 46.6219 5.24805C47.7145 5.44014 48.7596 5.70428 49.7571 6.04044C41.3492 6.90487 33.0125 8.48965 24.6045 9.21001C23.607 9.30606 22.6332 9.37808 21.6832 9.42611C22.4907 8.84982 23.3695 8.32157 24.3196 7.84133ZM69.2806 48.2533C68.9956 48.2533 68.7106 48.2533 68.4255 48.2533C66.1454 48.3254 64.0791 49.1898 62.7966 51.2788C62.4403 51.8551 62.084 52.5755 62.1553 53.2958C62.1553 53.8721 62.3691 54.5924 62.7966 54.9526C63.2716 55.3368 63.7704 55.649 64.2929 55.8891C64.0079 56.2253 63.6991 56.5374 63.3666 56.8256C63.034 56.6335 62.7015 56.3934 62.369 56.1052C62.0127 55.8171 61.7277 55.3848 61.514 54.9526C61.3715 54.4484 61.2289 53.9441 61.2289 53.4399C61.2289 52.9356 61.3002 52.4314 61.514 51.9272C61.6565 51.4229 61.8703 50.9907 62.084 50.5585C62.3691 50.1263 62.6778 49.718 63.0103 49.3339C63.3903 48.9497 63.7941 48.5895 64.2216 48.2533C64.6017 47.9652 65.0291 47.7011 65.5042 47.4609C65.9317 47.2208 66.4067 47.0527 66.9292 46.9567C67.6893 46.8126 68.4494 46.7165 69.2094 46.6685C69.4469 46.6685 69.7082 46.6685 69.9932 46.6685C69.7557 47.1968 69.5182 47.7251 69.2806 48.2533Z" fill="#B7805C"/>
</g>
<g style="mix-blend-mode:screen" opacity="0.5">
<path d="M53.0347 29.1641C48.5457 30.7488 44.0568 32.6938 40.0666 34.3506C35.7913 36.0795 31.5161 37.8084 27.2409 39.4652C26.5284 39.7533 25.6733 40.0415 24.6758 40.4737C31.3024 37.4482 38.1427 34.6388 44.8405 31.7573C48.4032 30.1726 50.1845 29.6683 53.0347 29.1641Z" fill="#CA9E67"/>
</g>
<g style="mix-blend-mode:screen" opacity="0.5">
<path d="M29.0224 46.6691C28.5236 47.1013 28.1673 47.6056 27.8823 48.1818C27.8823 48.1818 27.8823 48.2058 27.8823 48.2539C28.5236 46.1648 30.4474 44.58 33.4401 42.8512C36.3615 41.1944 39.4254 39.8257 42.4893 38.457C48.9022 35.7917 53.3199 34.4951 59.3052 33.5586C58.0939 33.7747 56.8825 34.1349 55.5287 34.4951C51.681 35.6476 44.6982 38.0248 38.7128 40.7622C34.5801 42.7071 30.875 44.7241 29.0224 46.6691Z" fill="#CA9E67"/>
</g>
<g style="mix-blend-mode:screen" opacity="0.5">
<path d="M38.7126 22.0336C40.3514 21.6735 41.919 21.0251 43.4866 20.5929C48.8306 19.0802 51.7521 18.72 56.3835 18.5039C47.1206 19.7285 39.4251 22.5379 29.8059 24.2668C27.5258 24.699 25.4594 25.2032 23.3931 25.7795C26.3145 24.699 28.3808 24.0507 31.9435 23.3303C34.1524 22.8261 36.4325 22.6099 38.7126 22.0336Z" fill="#CA9E67"/>
</g>
<g style="mix-blend-mode:screen" opacity="0.7">
<path d="M40.5652 63.1657C29.5209 62.8776 22.1106 57.9071 17.6216 49.623C22.3243 57.2588 30.8747 62.3013 40.5652 62.3013C50.1132 62.3013 58.3787 57.3309 63.1527 49.7671C58.1649 58.4834 50.1845 63.3818 40.5652 63.1657Z" fill="#CA9E67"/>
</g>
<g style="mix-blend-mode:screen" opacity="0.7">
<path d="M26.3147 16.4133C27.0747 15.7889 27.8823 15.2127 28.7373 14.6844C30.2099 13.82 31.7774 13.1236 33.44 12.5954C34.3901 12.3072 35.3401 12.0671 36.2902 11.875C35.6726 12.0191 35.0314 12.2112 34.3664 12.4513C32.6563 13.0276 30.9462 13.82 29.3786 14.6844C28.4523 15.1887 27.5973 15.7649 26.8847 16.3412C26.2672 16.8695 25.7446 17.4217 25.3171 17.998C24.8183 18.6464 25.2459 18.7184 26.2434 18.8625C25.1984 19.0065 24.1533 19.1746 23.1082 19.3667C24.1058 18.2622 25.1746 17.2777 26.3147 16.4133ZM18.9756 25.922C19.5931 24.4332 20.3769 23.0165 21.3269 21.6719C21.8019 21.5758 22.3007 21.5038 22.8232 21.4558C21.2556 22.032 20.8281 22.6804 19.6168 24.7694C19.3793 25.1536 19.1656 25.5378 18.9756 25.922Z" fill="#CA9E67"/>
</g>
<path opacity="0.7" fill-rule="evenodd" clip-rule="evenodd" d="M64.8627 32.8382C65.6702 32.7902 66.5015 32.7902 67.3565 32.8382C67.404 33.7026 67.4279 34.5671 67.4279 35.4315C67.0716 50.3429 55.3147 62.3008 40.4939 62.3008C26.2432 62.3008 14.5576 51.3514 13.6313 37.2324C14.2014 37.0883 14.7476 36.9202 15.2701 36.7281C14.8426 36.8002 14.2726 36.8722 13.6313 36.8722C13.6313 36.392 13.6313 35.9117 13.6313 35.4315C13.6313 20.3761 25.6732 7.69779 40.4939 8.20204C54.1747 8.70629 65.789 18.6472 67.2141 31.9738C66.5015 32.2139 65.7177 32.5021 64.8627 32.8382ZM40.4939 59.1312C54.1034 58.9151 63.9364 48.542 63.9364 35.4315C63.9364 22.321 53.4621 11.4436 40.4939 11.4436C27.5258 11.4436 17.0515 22.321 17.0515 35.4315C17.0515 48.542 26.8845 59.3474 40.4939 59.1312Z" fill="url(#paint4_linear_917_5749)"/>
<g style="mix-blend-mode:multiply" opacity="0.5">
<path d="M13.6313 35.4315C13.6313 20.3761 25.6732 7.69779 40.4939 8.20204C54.1746 8.70629 65.789 18.6472 67.2141 31.9738C67.1666 31.9738 67.1191 31.9978 67.0716 32.0458C64.934 19.4396 53.6759 10.147 40.4939 9.71477C25.8869 9.21052 13.9876 21.4566 13.6313 36.1519C13.6313 35.9117 13.6313 35.6716 13.6313 35.4315Z" fill="#683C11"/>
</g>
<g style="mix-blend-mode:multiply" opacity="0.5">
<path d="M63.9362 36.8727C63.9362 49.9832 54.1032 60.3563 40.4937 60.5724C26.8843 60.8606 17.0513 49.9832 17.0513 36.8727C17.0513 36.6326 17.0513 36.3925 17.0513 36.1523C17.4075 48.9027 27.1693 59.3478 40.4937 59.1317C53.8182 58.9156 63.5799 48.9027 63.9362 36.1523C63.9362 36.3925 63.9362 36.6326 63.9362 36.8727Z" fill="#683C11"/>
</g>
<path style="mix-blend-mode:screen" opacity="0.2" d="M63.9362 35.4312C63.9362 48.5417 54.1032 58.9149 40.4937 59.131C26.8843 59.3471 17.0513 48.5417 17.0513 35.4312C17.0513 22.3207 27.5256 11.4434 40.4937 11.4434C53.4619 11.4434 63.9362 22.3207 63.9362 35.4312Z" fill="url(#paint5_linear_917_5749)"/>
</g>
<defs>
<filter id="filter0_d_917_5749" x="0" y="0" width="77" height="77" filterUnits="userSpaceOnUse" color-interpolation-filters="sRGB">
<feFlood flood-opacity="0" result="BackgroundImageFix"/>
<feColorMatrix in="SourceAlpha" type="matrix" values="0 0 0 0 0 0 0 0 0 0 0 0 0 0 0 0 0 0 127 0" result="hardAlpha"/>
<feOffset dx="-2" dy="2"/>
<feGaussianBlur stdDeviation="3"/>
<feComposite in2="hardAlpha" operator="out"/>
<feColorMatrix type="matrix" values="0 0 0 0 0 0 0 0 0 0 0 0 0 0 0 0 0 0 0.32 0"/>
<feBlend mode="normal" in2="BackgroundImageFix" result="effect1_dropShadow_917_5749"/>
<feBlend mode="normal" in="SourceGraphic" in2="effect1_dropShadow_917_5749" result="shape"/>
</filter>
<linearGradient id="paint0_linear_917_5749" x1="2.30214" y1="69" x2="2.30214" y2="4.45608" gradientUnits="userSpaceOnUse">
<stop stop-color="#692705"/>
<stop offset="1" stop-color="#823B00"/>
</linearGradient>
<radialGradient id="paint1_radial_917_5749" cx="0" cy="0" r="1" gradientUnits="userSpaceOnUse" gradientTransform="translate(21.6831 8.12969) scale(66.7646 67.4974)">
<stop stop-color="#F59547"/>
<stop offset="1" stop-color="#A14C1F"/>
</radialGradient>
<radialGradient id="paint2_radial_917_5749" cx="0" cy="0" r="1" gradientUnits="userSpaceOnUse" gradientTransform="translate(25.531 32.9099) scale(68.2611 69.0101)">
<stop stop-color="#CFA04D"/>
<stop offset="1" stop-color="white"/>
</radialGradient>
<radialGradient id="paint3_radial_917_5749" cx="0" cy="0" r="1" gradientUnits="userSpaceOnUse" gradientTransform="translate(36.2191 68.0628) scale(84.0794 85.0021)">
<stop stop-color="#CFA04D"/>
<stop offset="1" stop-color="white"/>
</radialGradient>
<linearGradient id="paint4_linear_917_5749" x1="7.93105" y1="62.3008" x2="7.93105" y2="8.70629" gradientUnits="userSpaceOnUse">
<stop stop-color="#823B00"/>
<stop offset="1" stop-color="#692705"/>
</linearGradient>
<linearGradient id="paint5_linear_917_5749" x1="11.351" y1="58.9149" x2="11.351" y2="11.4434" gradientUnits="userSpaceOnUse">
<stop stop-color="#FFB01C"/>
<stop offset="0.6"/>
</linearGradient>
</defs>
</svg>
