<svg width="100" height="100" viewBox="0 0 100 100" fill="none" xmlns="http://www.w3.org/2000/svg">
<path d="M35.417 45.8333V58.3333M29.167 52.0833H41.667M10.9295 62.9958L8.66696 72.4042C7.07946 79.0167 11.3045 85.6333 18.1003 87.1792C23.8336 88.4792 29.7295 85.7542 32.3211 80.6125L32.8545 79.55C35.2295 74.8292 40.1628 71.8333 45.567 71.8333H54.4336C59.8378 71.8333 64.767 74.8292 67.1461 79.55L67.6795 80.6125C70.2711 85.7542 76.167 88.4792 81.9003 87.175C88.6961 85.6334 92.9211 79.0167 91.3336 72.4042L86.8128 53.5833C84.2586 42.9458 82.9795 37.625 79.3545 34.1417C78.435 33.2556 77.4281 32.4778 76.3336 31.8083C72.017 29.1667 66.4045 29.1667 55.1795 29.1667H44.8211C33.5961 29.1667 27.9836 29.1667 23.667 31.8083C22.5725 32.4778 21.5656 33.2556 20.6461 34.1417C18.0336 36.6542 16.642 40.1167 15.1128 45.8333M50.0003 29.1667V25C50.0003 23.8949 50.4393 22.8351 51.2207 22.0537C52.0021 21.2723 53.0619 20.8333 54.167 20.8333H58.3336C59.4387 20.8333 60.4985 20.3943 61.2799 19.6129C62.0613 18.8315 62.5003 17.7717 62.5003 16.6667V12.5" stroke="white" stroke-width="2" stroke-linecap="round"/>
<path d="M66.6673 45.8333C66.6673 46.9384 66.2283 47.9982 65.4469 48.7796C64.6655 49.561 63.6057 50 62.5007 50C61.3956 50 60.3358 49.561 59.5544 48.7796C58.773 47.9982 58.334 46.9384 58.334 45.8333C58.334 44.7282 58.773 43.6684 59.5544 42.887C60.3358 42.1056 61.3956 41.6666 62.5007 41.6666C63.6057 41.6666 64.6655 42.1056 65.4469 42.887C66.2283 43.6684 66.6673 44.7282 66.6673 45.8333ZM75.0007 58.3333C75.0007 59.4384 74.5617 60.4982 73.7803 61.2796C72.9989 62.061 71.9391 62.5 70.834 62.5C69.7289 62.5 68.6691 62.061 67.8877 61.2796C67.1063 60.4982 66.6673 59.4384 66.6673 58.3333C66.6673 57.2282 67.1063 56.1684 67.8877 55.387C68.6691 54.6056 69.7289 54.1666 70.834 54.1666C71.9391 54.1666 72.9989 54.6056 73.7803 55.387C74.5617 56.1684 75.0007 57.2282 75.0007 58.3333Z" fill="white"/>
</svg>
