<svg width="100" height="100" viewBox="0 0 100 100" fill="none" xmlns="http://www.w3.org/2000/svg">
<path d="M41.1652 96.0417C36.0402 88.8584 32.2194 76.7375 30.8027 62.4667M41.1652 4.16675C37.6819 8.93758 34.7986 16.1667 32.8652 24.8251M58.8319 96.0417C63.9236 88.9084 67.7277 76.9 69.1652 62.75M58.8319 4.16675C63.1944 10.1417 66.6152 19.9751 68.4069 31.6334" stroke="white" stroke-width="1.5" stroke-linecap="round" stroke-linejoin="round"/>
<path d="M8.54101 28.125C41.891 21.7458 59.9452 21.7125 91.4576 28.125M91.4576 71.8751C58.1118 78.2584 40.0577 78.2876 8.54101 71.8751M4.16602 50.0209H27.666C27.9515 50.0233 28.2317 49.9442 28.4738 49.7929C28.7159 49.6416 28.9098 49.4244 29.0327 49.1667L36.1868 34.6459C36.3203 34.3769 36.5295 34.1529 36.7885 34.0011C37.0476 33.8494 37.3453 33.7766 37.6452 33.7917C37.9456 33.8067 38.2345 33.9116 38.4745 34.0929C38.7145 34.2742 38.8945 34.5235 38.991 34.8084L48.7035 61.9126C48.8038 62.206 48.9902 62.4624 49.2385 62.6482C49.4868 62.8341 49.7853 62.9407 50.0952 62.9542C50.4064 62.9675 50.714 62.8836 50.9753 62.7141C51.2366 62.5446 51.4387 62.2979 51.5535 62.0084L60.9285 40.625C61.0458 40.36 61.2355 40.1334 61.4758 39.9713C61.716 39.8091 61.9971 39.718 62.2868 39.7084C62.5779 39.6995 62.8653 39.7755 63.1139 39.9272C63.3625 40.0788 63.5616 40.2996 63.6868 40.5625L67.9243 49.1667C68.0515 49.4219 68.2469 49.6369 68.4889 49.7877C68.7309 49.9385 69.01 50.0192 69.2952 50.0209H95.8326" stroke="white" stroke-width="1.5" stroke-linecap="round" stroke-linejoin="round"/>
<path d="M95.779 39.8833C91.154 18.8583 72.4165 3.125 49.9998 3.125C27.5832 3.125 8.8457 18.8583 4.2207 39.8833M95.779 60.1167C91.154 81.1417 72.4165 96.875 49.9998 96.875C27.5832 96.875 8.8457 81.1417 4.2207 60.1167" stroke="white" stroke-width="1.5" stroke-linecap="round" stroke-linejoin="round"/>
</svg>
