<svg width="120" height="120" viewBox="0 0 120 120" fill="none" xmlns="http://www.w3.org/2000/svg">
<path d="M70 90.0001C70 97.0001 70 100.5 71.365 103.175C72.5632 105.526 74.4744 107.437 76.825 108.635C79.5 110 83 110 90.0001 110C97.0001 110 100.5 110 103.175 108.635C105.526 107.437 107.437 105.526 108.635 103.175C110 100.5 110 97.0001 110 90.0001C110 83 110 79.5 108.635 76.825C107.437 74.4744 105.526 72.5632 103.175 71.365C100.5 70 97.0001 70 90.0001 70M70 90.0001C70 83 70 79.5 71.365 76.825C72.5632 74.4744 74.4744 72.5632 76.825 71.365C79.5 70 83 70 90.0001 70M70 90.0001C70 97.0001 70 100.5 68.635 103.175C67.4369 105.526 65.5256 107.437 63.175 108.635C60.5 110 57 110 50 110C43 110 39.5 110 36.825 108.635C34.4725 107.438 32.5595 105.526 31.36 103.175C30 100.5 30 97.0001 30 90.0001C30 83 30 79.5 31.36 76.825C32.5595 74.4737 34.4725 72.5624 36.825 71.365C39.5 70 43 70 50 70C57 70 60.5 70 63.175 71.365C65.5256 72.5632 67.4369 74.4744 68.635 76.825C70 79.5 70 83 70 90.0001ZM90.0001 70C97.0001 70 100.5 70 103.175 68.635C105.526 67.4369 107.437 65.5256 108.635 63.175C110 60.5 110 57 110 50C110 43 110 39.5 108.635 36.825C107.438 34.4725 105.526 32.5595 103.175 31.36C100.5 30 97.0001 30 90.0001 30C83 30 79.5 30 76.825 31.36C74.4737 32.5595 72.5624 34.4725 71.365 36.825C70 39.5 70 43 70 50C70 57 70 60.5 71.365 63.175C72.5632 65.5256 74.4744 67.4369 76.825 68.635C79.5 70 83 70 90.0001 70ZM50 30C50 37 50 40.5 48.64 43.175C47.4414 45.5283 45.5283 47.4414 43.175 48.64C40.5 50 37 50 30 50C23 50 19.5 50 16.825 48.64C14.4718 47.4414 12.5586 45.5283 11.36 43.175C10 40.5 10 37 10 30C10 23 10 19.5 11.36 16.825C12.5586 14.4718 14.4718 12.5586 16.825 11.36C19.5 10 23 10 30 10C37 10 40.5 10 43.175 11.36C45.5283 12.5586 47.4414 14.4718 48.64 16.825C50 19.5 50 23 50 30Z" stroke="white" stroke-width="2" stroke-linecap="round" stroke-linejoin="round"/>
</svg>
