<svg width="100" height="100" viewBox="0 0 100 100" fill="none" xmlns="http://www.w3.org/2000/svg">
<path d="M18.75 32.8125C18.75 30.9658 19.1137 29.1372 19.8204 27.431C20.5272 25.7249 21.563 24.1746 22.8688 22.8688C24.1746 21.563 25.7249 20.5272 27.431 19.8204C29.1372 19.1137 30.9658 18.75 32.8125 18.75C34.6592 18.75 36.4878 19.1137 38.194 19.8204C39.9001 20.5272 41.4504 21.563 42.7562 22.8688C44.062 24.1746 45.0979 25.7249 45.8046 27.431C46.5113 29.1372 46.875 30.9658 46.875 32.8125C46.875 36.5421 45.3934 40.119 42.7562 42.7562C40.119 45.3934 36.5421 46.875 32.8125 46.875C29.0829 46.875 25.506 45.3934 22.8688 42.7562C20.2316 40.119 18.75 36.5421 18.75 32.8125ZM32.8125 15.625C28.2541 15.625 23.8824 17.4358 20.6591 20.6591C17.4358 23.8824 15.625 28.2541 15.625 32.8125C15.625 37.3709 17.4358 41.7426 20.6591 44.9659C23.8824 48.1892 28.2541 50 32.8125 50C37.3709 50 41.7426 48.1892 44.9659 44.9659C48.1892 41.7426 50 37.3709 50 32.8125C50 28.2541 48.1892 23.8824 44.9659 20.6591C41.7426 17.4358 37.3709 15.625 32.8125 15.625ZM62.5 37.5C62.5 35.0136 63.4877 32.629 65.2459 30.8709C67.004 29.1127 69.3886 28.125 71.875 28.125C74.3614 28.125 76.746 29.1127 78.5041 30.8709C80.2623 32.629 81.25 35.0136 81.25 37.5C81.25 39.9864 80.2623 42.371 78.5041 44.1291C76.746 45.8873 74.3614 46.875 71.875 46.875C69.3886 46.875 67.004 45.8873 65.2459 44.1291C63.4877 42.371 62.5 39.9864 62.5 37.5ZM71.875 25C68.5598 25 65.3804 26.317 63.0362 28.6612C60.692 31.0054 59.375 34.1848 59.375 37.5C59.375 40.8152 60.692 43.9946 63.0362 46.3388C65.3804 48.683 68.5598 50 71.875 50C75.1902 50 78.3696 48.683 80.7138 46.3388C83.058 43.9946 84.375 40.8152 84.375 37.5C84.375 34.1848 83.058 31.0054 80.7138 28.6612C78.3696 26.317 75.1902 25 71.875 25ZM15.625 56.25C13.1386 56.25 10.754 57.2377 8.99587 58.9959C7.23772 60.754 6.25 63.1386 6.25 65.625C6.25 69.1125 7.55313 73.8438 11.6219 77.6969C15.7 81.5594 22.375 84.375 32.8094 84.375C43.2437 84.375 49.925 81.5625 54.0031 77.6969C58.0719 73.8438 59.375 69.1125 59.375 65.625C59.375 63.1386 58.3873 60.754 56.6291 58.9959C54.871 57.2377 52.4864 56.25 50 56.25H15.625ZM9.375 65.625C9.375 63.9674 10.0335 62.3777 11.2056 61.2056C12.3777 60.0335 13.9674 59.375 15.625 59.375H50C51.6576 59.375 53.2473 60.0335 54.4194 61.2056C55.5915 62.3777 56.25 63.9674 56.25 65.625C56.25 68.3875 55.2094 72.25 51.8563 75.4281C48.5125 78.5969 42.6875 81.25 32.8125 81.25C22.9375 81.25 17.1125 78.5937 13.7688 75.4281C10.4156 72.25 9.375 68.3875 9.375 65.625ZM62.3844 73.7125C61.9885 74.6542 61.5073 75.5917 60.9406 76.525C63.8344 77.5156 67.4313 78.125 71.875 78.125C80.7562 78.125 86.2531 75.6969 89.5437 72.625C92.8 69.5875 93.75 66.0438 93.75 64.0625C93.75 61.9905 92.9269 60.0034 91.4618 58.5382C89.9966 57.0731 88.0095 56.25 85.9375 56.25H60.4813C61.3187 57.1875 62.0344 58.2375 62.6 59.375H85.9375C87.1807 59.375 88.373 59.8689 89.2521 60.7479C90.1311 61.627 90.625 62.8193 90.625 64.0625C90.625 65.2094 90.0125 67.9156 87.4094 70.3438C84.8438 72.7406 80.1813 75 71.875 75C67.9531 75 64.8437 74.4969 62.3844 73.7125Z" fill="white"/>
</svg>
